<?xml version="1.0" encoding="UTF-8" standalone="no"?>
<!DOCTYPE svg PUBLIC "-//W3C//DTD SVG 1.1//EN" "http://www.w3.org/Graphics/SVG/1.1/DTD/svg11.dtd">
<svg version="1.1" xmlns="http://www.w3.org/2000/svg" xmlns:xlink="http://www.w3.org/1999/xlink" preserveAspectRatio="xMidYMid meet" viewBox="0 0 660 450" width="660" height="450"><defs><path d="M419.65 274.88C406.23 264.25 390.33 258.08 373.3 258.08C353.34 258.08 334.95 266.53 320.25 280.73C301.25 250.02 271.59 230.21 238.23 230.21C225.38 230.21 213.06 233.17 201.69 238.55C195.04 227.29 183.15 220.42 170.33 220.41C150.02 220.4 133.55 237.3 133.54 258.15C133.54 258.15 133.54 258.16 133.54 258.16C133.54 271.67 140.51 283.51 150.92 290.18C147.32 297.26 144.29 304.64 141.86 312.23C139 314.18 136.27 316.41 133.7 318.88C120.6 297.67 100.11 284 77.09 284C37.54 284 5.45 324.29 5.45 373.95C5.45 390.51 16.14 403.93 29.33 403.93C38.88 403.93 115.29 403.93 124.84 403.93C125.8 403.93 126.74 403.83 127.67 403.7C128.5 403.84 129.35 403.94 130.23 403.94C147.95 403.94 289.69 403.94 307.41 403.94C308.81 403.94 310.16 403.8 311.51 403.62C312.72 403.8 313.97 403.94 315.23 403.94C326.84 403.94 419.77 403.94 431.39 403.94C433.17 403.94 434.94 403.71 436.65 403.32C438.63 403.69 440.64 403.94 442.69 403.94C458.84 403.94 588.01 403.94 604.16 403.94C626.47 403.94 644.55 381.27 644.55 353.26C644.55 269.3 590.29 201.18 523.42 201.18C479.39 201.18 440.84 230.72 419.65 274.88ZM597.47 110.42C597.47 68.45 564.3 34.41 523.42 34.41C482.54 34.41 449.39 68.46 449.39 110.42C449.38 152.4 482.54 186.47 523.42 186.47C564.31 186.47 597.47 152.4 597.47 110.42Z" id="i14MXXAG0o"></path><path d="M301.68 152.45C301.67 116.48 273.27 87.33 238.23 87.32C203.2 87.89 175.24 117.52 175.8 153.49C176.34 188.66 203.98 217.04 238.23 217.6C273.27 217.59 301.68 188.43 301.68 152.45Z" id="ak9ImAri3"></path><path d="M373.3 138.08C343.88 138.08 320.03 162.57 320.03 192.78C320.03 223 343.88 247.49 373.3 247.49C402.73 247.49 426.58 223 426.58 192.78C426.58 162.57 402.73 138.08 373.3 138.08Z" id="bIHyJrdkQ"></path><path d="M77.09 185.36C52.9 185.36 33.29 205.5 33.29 230.33C33.29 255.17 52.9 275.31 77.09 275.31C101.29 275.31 120.9 255.17 120.9 230.33C120.9 205.5 101.29 185.36 77.09 185.36Z" id="imsvsiypM"></path></defs><g><g><g><use xlink:href="#i14MXXAG0o" opacity="1" fill="#2269de" fill-opacity="1"></use><g><use xlink:href="#i14MXXAG0o" opacity="1" fill-opacity="0" stroke="#000000" stroke-width="1" stroke-opacity="0"></use></g></g><g><use xlink:href="#ak9ImAri3" opacity="1" fill="#2269de" fill-opacity="1"></use><g><use xlink:href="#ak9ImAri3" opacity="1" fill-opacity="0" stroke="#000000" stroke-width="1" stroke-opacity="0"></use></g></g><g><use xlink:href="#bIHyJrdkQ" opacity="1" fill="#2269de" fill-opacity="1"></use><g><use xlink:href="#bIHyJrdkQ" opacity="1" fill-opacity="0" stroke="#000000" stroke-width="1" stroke-opacity="0"></use></g></g><g><use xlink:href="#imsvsiypM" opacity="1" fill="#2269de" fill-opacity="1"></use><g><use xlink:href="#imsvsiypM" opacity="1" fill-opacity="0" stroke="#000000" stroke-width="1" stroke-opacity="0"></use></g></g></g></g></svg>