<?xml version="1.0" encoding="UTF-8" standalone="no"?>
<!DOCTYPE svg PUBLIC "-//W3C//DTD SVG 1.1//EN" "http://www.w3.org/Graphics/SVG/1.1/DTD/svg11.dtd">
<svg version="1.1" xmlns="http://www.w3.org/2000/svg" xmlns:xlink="http://www.w3.org/1999/xlink" preserveAspectRatio="xMidYMid meet" viewBox="0 0 640 640" width="640" height="640"><defs><path d="M416.58 277.03C403.25 265.16 387.46 258.29 370.54 258.29C350.71 258.29 332.44 267.71 317.83 283.56C298.96 249.28 269.49 227.18 236.36 227.18C223.59 227.18 211.35 230.48 200.06 236.48C193.45 223.92 181.64 216.24 168.9 216.24C148.73 216.23 132.36 235.09 132.36 258.36C132.36 258.36 132.36 258.37 132.36 258.37C132.36 273.45 139.28 286.66 149.62 294.11C146.04 302.02 143.03 310.25 140.62 318.72C137.78 320.9 135.06 323.38 132.51 326.14C119.5 302.47 99.14 287.21 76.28 287.21C36.99 287.21 5.11 332.18 5.11 387.61C5.11 406.09 15.73 421.07 28.83 421.07C38.32 421.07 114.22 421.07 123.71 421.07C124.67 421.07 125.6 420.96 126.52 420.81C127.34 420.98 128.2 421.08 129.06 421.08C146.67 421.08 287.48 421.08 305.08 421.08C306.47 421.08 307.82 420.93 309.15 420.72C310.36 420.93 311.6 421.08 312.84 421.08C324.38 421.08 416.7 421.08 428.24 421.08C430.02 421.08 431.77 420.83 433.47 420.39C435.44 420.8 437.43 421.08 439.48 421.08C455.52 421.08 583.84 421.08 599.88 421.08C622.04 421.08 640 395.78 640 364.52C640 270.81 586.1 194.77 519.67 194.77C475.93 194.77 437.64 227.74 416.58 277.03ZM593.23 93.48C593.23 46.63 560.28 8.63 519.67 8.63C479.06 8.63 446.12 46.64 446.12 93.48C446.11 140.32 479.06 178.35 519.67 178.35C560.29 178.35 593.23 140.32 593.23 93.48Z" id="dX07sevDR"></path><path d="M302.9 142.15C302.89 102 274.68 69.46 239.87 69.46C205.07 70.09 177.3 103.16 177.85 143.31C178.39 182.56 205.84 214.24 239.87 214.86C274.68 214.85 302.9 182.3 302.9 142.15Z" id="b2vVrzKpqJ"></path><path d="M374.05 126.11C344.82 126.11 321.13 153.45 321.13 187.16C321.13 220.88 344.82 248.22 374.05 248.22C403.28 248.22 426.98 220.88 426.98 187.16C426.98 153.45 403.28 126.11 374.05 126.11Z" id="an0wYEvzb"></path><path d="M79.79 178.88C55.76 178.88 36.28 201.35 36.28 229.08C36.28 256.8 55.76 279.27 79.79 279.27C103.83 279.27 123.31 256.8 123.31 229.08C123.31 201.35 103.83 178.88 79.79 178.88Z" id="gknLRvsVu"></path></defs><g><g><g><use xlink:href="#dX07sevDR" opacity="1" fill="#ffffff" fill-opacity="1"></use><g><use xlink:href="#dX07sevDR" opacity="1" fill-opacity="0" stroke="#000000" stroke-width="1" stroke-opacity="0"></use></g></g><g><use xlink:href="#b2vVrzKpqJ" opacity="1" fill="#ffffff" fill-opacity="1"></use><g><use xlink:href="#b2vVrzKpqJ" opacity="1" fill-opacity="0" stroke="#000000" stroke-width="1" stroke-opacity="0"></use></g></g><g><use xlink:href="#an0wYEvzb" opacity="1" fill="#ffffff" fill-opacity="1"></use><g><use xlink:href="#an0wYEvzb" opacity="1" fill-opacity="0" stroke="#000000" stroke-width="1" stroke-opacity="0"></use></g></g><g><use xlink:href="#gknLRvsVu" opacity="1" fill="#ffffff" fill-opacity="1"></use><g><use xlink:href="#gknLRvsVu" opacity="1" fill-opacity="0" stroke="#000000" stroke-width="1" stroke-opacity="0"></use></g></g></g></g></svg>