<svg xmlns="http://www.w3.org/2000/svg" width="137" height="57" viewBox="0 0 137 57">
  <g id="Group_1" data-name="Group 1" transform="translate(5 -197)">
    <rect id="Rectangle_1" data-name="Rectangle 1" width="91" height="21" transform="translate(-5 215)" fill="#fff"/>
    <path id="Polygon_1" data-name="Polygon 1" d="M28.5,0,57,45H0Z" transform="translate(130 197) rotate(90)" fill="#eaeaea"/>
    <rect id="Rectangle_2" data-name="Rectangle 2" width="19" height="19" transform="translate(-4 216)" fill="#d6d5d5"/>
    <rect id="Rectangle_10" data-name="Rectangle 10" width="19" height="19" transform="translate(66 216)" fill="#d6d5d5"/>
    <rect id="Rectangle_7" data-name="Rectangle 7" width="19" height="19" transform="translate(37 216)" fill="#b6b1b1"/>
    <rect id="Rectangle_11" data-name="Rectangle 11" width="20" height="19" transform="translate(85 216)" fill="#b6b1b1"/>
    <rect id="Rectangle_3" data-name="Rectangle 3" width="11" height="10" transform="translate(15 225)" fill="#b6b1b1"/>
    <rect id="Rectangle_6" data-name="Rectangle 6" width="11" height="10" transform="translate(26 216)" fill="#d6d5d5"/>
    <rect id="Rectangle_9" data-name="Rectangle 9" width="11" height="9" transform="translate(56 226)" fill="#bcbaba"/>
    <rect id="Rectangle_14" data-name="Rectangle 14" width="10" height="9" transform="translate(105 216)" fill="#bcbaba"/>
    <rect id="Rectangle_4" data-name="Rectangle 4" width="11" height="10" transform="translate(15 216)" fill="#a69d9d"/>
    <rect id="Rectangle_8" data-name="Rectangle 8" width="11" height="10" transform="translate(56 216)" fill="#a69d9d"/>
    <rect id="Rectangle_15" data-name="Rectangle 15" width="10" height="10" transform="translate(105 225)" fill="#a69d9d"/>
    <rect id="Rectangle_12" data-name="Rectangle 12" width="12" height="11" transform="translate(85 205)" fill="#a69d9d"/>
    <rect id="Rectangle_13" data-name="Rectangle 13" width="12" height="11" transform="translate(85 235)" fill="#a69d9d"/>
    <rect id="Rectangle_5" data-name="Rectangle 5" width="11" height="9" transform="translate(26 226)" fill="#a69d9d"/>
    <path id="Polygon_2" data-name="Polygon 2" d="M9.5,0,19,17H0Z" transform="translate(132 215.983) rotate(90)" fill="#cfcfcf"/>
  </g>
</svg>
